<svg xmlns="http://www.w3.org/2000/svg" viewBox="0 0 500 250">
  <defs></defs>
  <path style="stroke-width: 4px; fill: none;" d="M 28.179 85.549 L 12.768 94.656 L 108.387 237.56 C 108.387 237.56 223.971 170.311 278.611 178.367 C 300 183.971 300 185.022 317.839 172.062 C 327.996 166.808 359.169 140.54 487.713 143.692 C 470.551 132.834 495.068 148.595 456.54 124.077"></path>
  <path style="stroke-width: 4px; fill: none;" d="M 28.179 62.433 C 28.179 62.433 113.991 7.443 181.24 44.92 C 211.012 71.539 258.997 114.62 288.418 139.839 C 200 132.134 117.144 189.575 117.144 189.575 L 28.179 62.433 Z"></path>
  <path style="stroke-width: 4px; fill: none;" d="M 181.086 44.629 C 218.213 7.467 226.969 23.963 317.685 13.806 C 357.959 41.688 422.46 78.794 453.233 103.472 C 344.5 93.665 288.965 139.898 288.965 139.898 C 288.965 139.898 195.452 60.631 181.086 44.629 Z"></path>
  <path style="stroke-width: 4px; fill: none;" d="M 116.793 188.524 L 112.94 222.499 L 27.128 95.006 L 27.479 62.783"></path>
  <path style="stroke-width: 4px; fill: none;" d="M 458.291 104.463 C 458.291 104.463 453.388 111.118 459.342 134.935 C 411.357 139.138 371.778 127.931 315.037 164.707 C 300 140.539 289.118 139.839 289.118 139.839 C 289.118 139.839 276.86 153.848 274.058 171.361 C 225.363 163.366 156.924 200.351 113.639 225.652"></path>
</svg>
