<svg width="46" height="42" viewBox="0 0 10 42" fill="none" xmlns="http://www.w3.org/2000/svg">
<path d="M40.68 5.21999C39.6585 4.198 38.4456 3.38728 37.1107 2.83416C35.7758 2.28103 34.345 1.99634 32.9 1.99634C31.455 1.99634 30.0242 2.28103 28.6893 2.83416C27.3544 3.38728 26.1415 4.198 25.12 5.21999L23 7.33999L20.88 5.21999C18.8166 3.15661 16.0181 1.99741 13.1 1.99741C10.1819 1.99741 7.38338 3.15661 5.31999 5.21999C3.25661 7.28337 2.09741 10.0819 2.09741 13C2.09741 15.9181 3.25661 18.7166 5.31999 20.78L23 38.46L40.68 20.78C41.702 19.7585 42.5127 18.5456 43.0658 17.2107C43.6189 15.8758 43.9036 14.445 43.9036 13C43.9036 11.555 43.6189 10.1242 43.0658 8.78928C42.5127 7.45436 41.702 6.2415 40.68 5.21999Z" stroke="#1E1E1E" stroke-width="4" stroke-linecap="round" stroke-linejoin="round"/>
</svg>
